<?xml version="1.0" encoding="UTF-8"?>
<svg xmlns="http://www.w3.org/2000/svg"
  width="4in"
  height="5.733in"
  viewBox="-8 -8 136 188"
  role="img"
  aria-label="SILICON COVENANT guild mark">
  <title>SILICON COVENANT guild mark</title>
  <desc>Nexus Academy guild mark — vector art for large-format print. Source: nexus-academy GuildMark component.</desc>
  <rect width="100%" height="100%" fill="none"/>
  <g stroke="#6B5B8A" stroke-width="3" stroke-linejoin="round" stroke-linecap="round" fill="none">
          <ellipse cx="60" cy="86" rx="52" ry="78"/>
          <line x1="60" y1="30" x2="60" y2="152"/>
          <line x1="60" y1="64" x2="40" y2="46"/>
          <line x1="60" y1="80" x2="28" y2="62"/>
          <line x1="60" y1="104" x2="32" y2="92"/>
          <line x1="60" y1="130" x2="40" y2="116"/>
          <line x1="60" y1="64" x2="80" y2="46"/>
          <line x1="60" y1="80" x2="92" y2="62"/>
          <line x1="60" y1="104" x2="88" y2="92"/>
          <line x1="60" y1="130" x2="80" y2="116"/>
          <circle cx="60" cy="30" r="7"/>
          <circle cx="60" cy="62" r="7"/>
          <circle cx="60" cy="158" r="6"/>
          <circle cx="40" cy="44" r="5"/>
          <circle cx="28" cy="62" r="5"/>
          <circle cx="32" cy="92" r="5"/>
          <circle cx="40" cy="116" r="5"/>
          <circle cx="80" cy="44" r="5"/>
          <circle cx="92" cy="62" r="5"/>
          <circle cx="88" cy="92" r="5"/>
          <circle cx="80" cy="116" r="5"/>
        </g>
</svg>
